PathFileType	4	(X/Y/Z)	63_1_35_p1_0-717_filt_butterworth.trc
DataRate	CameraRate	NumFrames	NumMarkers	Units	OrigDataRate	OrigDataStartFrame	OrigNumFrames
59.0	59.0	5	27	m	59.0	268	717
Frame#	Time	RHip			RKnee			RAnkle			RBigToe			RSmallToe			RHeel			LHip			LKnee			LAnkle			LBigToe			LSmallToe			LHeel			Neck			Head			Nose			RShoulder			RElbow			RWrist			RThumb			RIndex			RPinky			LShoulder			LElbow			LWrist			LThumb			LIndex			LPinky			
		X1	Y1	Z1	X2	Y2	Z2	X3	Y3	Z3	X4	Y4	Z4	X5	Y5	Z5	X6	Y6	Z6	X7	Y7	Z7	X8	Y8	Z8	X9	Y9	Z9	X10	Y10	Z10	X11	Y11	Z11	X12	Y12	Z12	X13	Y13	Z13	X14	Y14	Z14	X15	Y15	Z15	X16	Y16	Z16	X17	Y17	Z17	X18	Y18	Z18	X19	Y19	Z19	X20	Y20	Z20	X21	Y21	Z21	X22	Y22	Z22	X23	Y23	Z23	X24	Y24	Z24	X25	Y25	Z25	X26	Y26	Z26	X27	Y27	Z27	
268	4.5423728813559325	0.3165589260483554	0.5914620479759722	0.694915856268398	0.34743949273954267	0.7161038985591064	1.1521330322291792	0.3353889706008661	0.8316272943405656	1.5831703856642143	0.30439551254646224	0.6567706014325971	1.624230621928911	0.370199993768861	0.6667295828999459	1.6079810285822853	0.3192508245331012	0.9420997341392401	1.6357771539165742	0.10158202886685137	0.5512782379953672	0.7006520035530432	0.1091039454564928	0.7104054129451813	1.149146678778958	0.12327806030486288	0.8499394961393562	1.5656073065576006	0.1437802908654724	0.6673037959231073	1.6135133406645958	0.08682350924235718	0.7115780900809232	1.6092918188532064	0.14025760076089397	0.9632497583671755	1.643572107481591	0.18605800506537556	0.35080569936665107	0.15413634433242224	0.18956556624024834	0.2461533626879968	-0.07015283504367738	0.1965990368972553	0.19429834383989578	0.07608142762850166	0.34268864927512016	0.407460699782266	0.20999373365736668	0.4715171857037882	0.43559521681204677	0.41473909516089874	0.500515617502423	0.19674230063957174	0.5147513381360482	0.45325754791687367	0.056857798508208476	0.5572288627178656	0.46071471196166014	0.02270618891877652	0.5744001219118273	0.47104298383226106	0.0532388866657312	0.611796175685095	0.02758434760125932	0.35832582032723836	0.25666083971902864	0.06727791325539055	0.3163848204281389	0.5136710584866181	0.25465742315000606	0.13964352043434744	0.5941060507349567	0.356941233921459	0.09047855691808829	0.5747562906442025	0.38075730571479754	0.058963896376846084	0.6003593266756511	0.3646502644491882	0.13567903069449866	0.6559789303022845
269	4.559322033898305	0.3171405086524642	0.5914023781760898	0.6968610898964185	0.34743793607819046	0.7158618103811695	1.1520196555667477	0.33418837683320063	0.8271309930221711	1.5813945409111487	0.3044590178850992	0.6570652015049322	1.624325302198612	0.37000591643363756	0.6666571627306451	1.6095808457612013	0.31768692820815736	0.9376913617493978	1.6343921936389616	0.10436117391987881	0.5500181202708281	0.7006699816847456	0.10910652335752265	0.7104053181806199	1.1496144468388498	0.12326313346151671	0.8498159262269415	1.5654889081286754	0.1441315873968243	0.668458498315663	1.6157948237850726	0.08645111239565256	0.713394474456029	1.6094785989870495	0.14280778589589194	0.9634000376331413	1.6404619446784645	0.18803642259858094	0.34741744691468635	0.15553461854588668	0.19116796086678134	0.24614683325713585	-0.06970003716010263	0.19880184027759762	0.19437116703842128	0.07686208847770096	0.34324564711217015	0.409143019144512	0.21050666378204608	0.45837231211053825	0.43096037393728737	0.41838701918917337	0.48402816887035216	0.20639222232306006	0.5289206376921608	0.4315247447928562	0.0607051066479491	0.5678906413546573	0.44102504375656326	0.02827363733149245	0.5945190400257597	0.45511777547909066	0.06281974860326339	0.6277806867187568	0.027642561992241937	0.3580511724304908	0.25629845173093146	0.06628138395821087	0.3152410318452573	0.5127720253647189	0.25420599249933334	0.13921036184982288	0.5940257318364821	0.3548503116231657	0.08877291453399473	0.5757502032003516	0.37968910581578474	0.05596548659239477	0.6016374952716137	0.3645948522062872	0.13732945261309437	0.6522706101927013
270	4.576271186440678	0.3172771746798673	0.5902952745049738	0.6963076451480894	0.34743383351158813	0.7156419403850182	1.1519172124581751	0.33259569309406606	0.820859285743645	1.5785399159749158	0.3046137006839357	0.6574952416266726	1.6244430301761246	0.36965322805387485	0.6664657945233898	1.6118987984769277	0.3170997274814649	0.9363513116555948	1.6338869968514353	0.10723959353598632	0.5494760552526451	0.7006243030959762	0.10921465404412609	0.7106941536365359	1.1507543855354472	0.12328920897900107	0.8498003347093467	1.5655248838230413	0.1444581718108941	0.6694994668276988	1.6179136801604026	0.08541360883255529	0.717838771244431	1.6097884559190783	0.1443958682186734	0.963724397541137	1.6381202951168068	0.189914057011844	0.34642957216846976	0.15588147933816437	0.19331341109286496	0.2458379320874539	-0.06966310248311283	0.2011918258242312	0.19442576946928955	0.07713209596691235	0.34500607466695776	0.41332048068560806	0.21133750852209943	0.44740594419268714	0.43266707736852106	0.422505019954107	0.4677366801539109	0.22123618449640797	0.5389057205341896	0.40962911637211985	0.06203019322784689	0.57554027757879	0.4214113654069563	0.037656296482869805	0.6121402249291843	0.4363345430771411	0.06807307992189476	0.6363374246758607	0.0283374544359932	0.3575417373292428	0.2555316671802395	0.06596803017087287	0.31478416455172364	0.5114825420901368	0.25380485199906627	0.13992268487339324	0.5939687031358412	0.3532461535815624	0.08925299346049076	0.5757857587927988	0.3788752068180722	0.053392479246339955	0.6030012341488712	0.36528779684165424	0.13868560972470617	0.6478990581695168
271	4.593220338983051	0.31768985320325227	0.5894015666733231	0.6945958591308936	0.3474761436288077	0.715568183342646	1.1518488941492435	0.3314145074825829	0.8158005006055458	1.5757551175473166	0.30469319589486765	0.6575434332144086	1.6244180725349824	0.36942938871402475	0.6660562013319881	1.6126195281618645	0.3173041811851835	0.936397239399276	1.6338942639952796	0.10892882888036276	0.5491433876931567	0.7004790101348741	0.10949510603758375	0.711425192292974	1.1522801165238927	0.12342869294661898	0.8501208060771608	1.5659735196385063	0.14499407088551383	0.6701698332765393	1.618867503273184	0.08403236138747898	0.723540701336235	1.6101280512202312	0.14414073795806567	0.9618778880773875	1.6373158333596471	0.19148433847511565	0.34783510074194507	0.15553668258237124	0.19495044216814622	0.24540903601257635	-0.06983081014818124	0.20350709701855466	0.19507035913819384	0.07700523207919345	0.3481264792579725	0.41872365410153234	0.21277349079330618	0.43945298731015325	0.4458410190623488	0.4287833095901822	0.4527633943433196	0.2355948609324267	0.5464200296800586	0.39321871107174655	0.06396193057659642	0.5814746002589694	0.4048184068429326	0.04556167320947949	0.6234524432767428	0.4172622087325239	0.07124231443948839	0.6411187046207851	0.029938232813776573	0.3570929360460547	0.2545411418183965	0.06607515884107526	0.3170732165387447	0.5103674492310819	0.2531944721928136	0.14284147819957232	0.5939502379580326	0.35313509426473	0.09430400733026989	0.5746417575981667	0.37905352125909286	0.05523785155900311	0.6063811084297638	0.36675133436888746	0.13965837396161593	0.6449019955376168
272	4.610169491525424	0.3184315494596796	0.589552029461248	0.6932335110507076	0.34760175366688284	0.7157380492507881	1.1518474285774372	0.33102868136011926	0.8136858318098525	1.5741712984255607	0.3042989184525267	0.6560178575123222	1.6238915562341951	0.36938453278010375	0.6654529710493648	1.610515072995611	0.31813439529427917	0.9350505771119946	1.6339665192462118	0.10899321664360773	0.5488390133458209	0.7002455096177584	0.10987544875619698	0.7123955717897987	1.1535087536620492	0.12374436859404268	0.8509402256628005	1.5668908333741227	0.14606174664501687	0.6705304576982177	1.6185162891353477	0.08307502149934666	0.7276312228379377	1.6103630883592268	0.14310715449491224	0.9551222904220904	1.636243246840565	0.19290568609839448	0.3511917130037212	0.1548716882320291	0.19555074234244493	0.24501269459553632	-0.07011828069418707	0.20560317852290375	0.19728059114313096	0.07641355184786694	0.35140594900104855	0.4233304216137306	0.21495383346369934	0.4319442861857151	0.4680818493116554	0.4365481393342656	0.4388037716908868	0.24426643290166272	0.5522963602692261	0.3837667560919283	0.0663467876599621	0.5880071246222642	0.3931815967303404	0.0485414958830504	0.6287442806343323	0.40186790189032984	0.07783465309956045	0.6446015109570342	0.03182136131173465	0.35685697898519975	0.2536991278544446	0.0662673418948752	0.32351294283856974	0.5097838356991395	0.2528009582209086	0.14803264984962347	0.5939025478396351	0.3549850662106895	0.10311394492503907	0.5738248546779398	0.38022947007867985	0.0637768801953958	0.6119307147968999	0.36844674259139304	0.14060943624198297	0.6449596663989301
